<?xml version="1.0" encoding="utf-8"?>
<!-- Generator: Adobe Illustrator 22.1.0, SVG Export Plug-In . SVG Version: 6.00 Build 0)  -->
<svg version="1.1" xmlns="http://www.w3.org/2000/svg" xmlns:xlink="http://www.w3.org/1999/xlink" x="0px" y="0px"
	 viewBox="0 0 572.7 140.5" style="enable-background:new 0 0 572.7 140.5;" xml:space="preserve">
<style type="text/css">
	.st0{fill:#FF8300;}
</style>
<g id="Spot-PMS151">
	<g>
		<g id="S-Fill_5_">
			<path d="M103,31.4H2v38.7c0,13.5,3.5,24.7,8.8,33.9c14.5,25.2,41.7,34.5,41.7,34.5s27.2-9.3,41.7-34.5c5.2-9.2,8.8-20.3,8.8-33.9
				V31.4z"/>
		</g>
		<g id="R-Fill_3_">
			<rect x="2" y="2" class="st0" width="101" height="27.4"/>
		</g>
		<g id="S-Outline_5_">
			<path d="M103,31.4v38.7c0,13.5-3.6,24.7-8.8,33.9c-14.6,25.2-41.7,34.5-41.7,34.5s-27.2-9.3-41.7-34.5C5.5,94.8,2,83.6,2,70.1
				V31.4H103 M105,29.4h-2H2H0v2v38.7C0,82.7,3,94.5,9,105c14.7,25.5,41.7,35,42.8,35.4l0.6,0.2l0.6-0.2c1.1-0.4,28.1-9.8,42.8-35.3
				c6-10.6,9.1-22.3,9.1-34.9V31.4V29.4L105,29.4z"/>
		</g>
		<g id="R-Outline_5_">
			<path d="M103,2v27.4H2V2H103 M105,0h-2H2H0v2v27.4v2h2h101h2v-2V2V0L105,0z"/>
		</g>
		<path class="st0" d="M52.5,31.5l-40.9,71.7c0,0,0,0.1,0,0.1h81.9c0,0,0-0.1,0-0.1L52.5,31.5L52.5,31.5z"/>
		<g>
			<g>
				<path d="M73.4,93.5c-0.8-1,0.5-2.3,0.4-3.5c-0.3-2.9-7-3.8-7.3-5.5c-0.2-0.9,0.6-1.4,0.9-1.7c1.4-1.4,2.2-3.1,1.9-5.3
					c1.1-1.6,0.3-3.9-0.1-5.6c-0.2-0.6-0.3-1-1.2-1.3c-2.7-3.2-3.9-6.6-6.2-9.3c-2.3-2.7-3.6-2.3-4.9-3.3c-1.1-1.3,1-2.6,0.3-4.1
					c-1-1.6-3.3,0.2-5-0.5c-0.7-0.3-0.9-0.4-2-0.2c-3.2,0.6-4.3,3.2-2.7,3.9c0.4,0.2,0.8,0.4,0.9,0.7c0.3,1.3,0,2.9,1.1,3.8
					c0.9,0.5,2.2-0.3,3.1,0.1c0.6,0.3,0.7,0.7,0.7,1.2c0,0.3,0,3.2-1.2,4.2c-4,3.6-5.3-3.3-8.2-4.8c0-0.2,0-0.4-0.1-0.6
					c0-0.2-0.3-0.9-1.1-0.4c-0.7,0.6-1.4,1.7-1.5,2.3c-0.1,0.6,0.1,0.8,0.4,1c3.1,2.1,4.2,4.9,5.8,7.5c-0.6,2.5-0.6,5.8,0.1,8.7
					c-0.6,1.9-2.9,1.8-3.9,3.2c-0.6,1,0.2,1.3,0.9,1.6c0.6,0.3,0.3,0.5,0.2,0.7c-0.1,0.2-1.4,1.5-1.4,3.3c0,1.9,1.4,2.9,0.2,4
					c-0.4,0.3-0.8,0.2-1.2,0c-0.3-0.1-0.8-0.2-0.8-1.2c-0.2-2-0.7-6.8-1.5-8.4c0,0,0.3-3,0.2-5.4c-0.1-1.9-0.1-4.6,0.6-6.3
					c0.2-0.5,0.8-0.5,0.9-1c0.1-0.5-0.4-0.7-0.8-1.1c-0.2-1.5,1.6-1,2.1-2c0.7-1.4-0.9-2.3-2.5-1.2c-1.1,0.8-1.9,0-2.6-1
					c-0.4-0.5-1.5-0.3-1.9,0.2c-0.8,1.3,0.4,2.6,1,3.6c-0.2,0.5-1.9,0.2-1.8,1.5c0.1,0.6,0.6,0.4,0.8,0.9c0.7,1.6-0.1,4.1-0.3,5.4
					c-0.3,2-0.6,6.6-0.6,6.6c-0.8,0.9-1.1,3.9-1.4,6.3c-0.1,1.9-2.2,3.4-1.1,5.2l44-0.1l0-0.4C77,92.9,74.3,94.6,73.4,93.5z
					 M37.1,76.6c0.2-1.9,0.6-3.8,0.7-4.6c0.1-0.9,2.1-1.1,1.5,0.9c-0.6,1.9,0.8,7.8-0.7,11.6c-0.4,0.8-1.2,1.4-1.5,0.1
					C36.5,81.9,36.7,79.3,37.1,76.6z M39.1,92.8c-0.9,0.4-1-0.3-1-1c-0.2-0.7,0.5-1.9-0.6-2c-1.7,0.1-0.9,2.5-1.9,2.9
					c-0.4,0.2-0.9,0-0.9-0.7c0.2-1.5,0.6-3.3,0.9-4.3c0.3-1,1.4-0.4,1.9-0.4c0.8-0.1,1.6-0.7,1.8,0.4c0.1,0.7,0.3,3.6,0.3,3.6
					C39.9,91.9,39.6,92.6,39.1,92.8z M39.7,69c-0.2,0.1-0.9,0.1-1.2,0.1c-0.2-0.1-0.5-0.4-0.2-0.7c0.3-0.3,0.9-0.2,0.9-0.2
					s0.1,0,0.4,0.2C39.9,68.5,39.9,69,39.7,69z M44.6,65.7c-0.5-0.3-0.3-0.5-0.2-0.6c0.2-0.2,0.4-0.2,0.7,0c0.4,0.3,3,3.2,3.7,3.9
					c0.2,0.2,0.6,0.5,1.5,0.1c0.3-0.1,0.8-0.3,1-0.4c1-0.4,1,0.4,0.8,0.9c-0.2,0.6-0.3,1.4-2.9,1.7c-0.4,0-0.8-0.3-1-0.5
					C46.9,69.2,46.1,67.2,44.6,65.7z M51.3,74c0,0-0.7,2.1-1.2,3.1c-1.2,2.3-1.9,0.5-1.9-0.2c0-0.7-0.1-1.8,0.5-3.2
					c0.5-1.1,1.4-1.3,2-1.3C51,72.5,51.6,73.2,51.3,74z M54.6,63.1c0.4-1.5-0.2-1.8-0.6-2.2c-1-0.9-3.8,0-3.8-1.9
					c0-0.1,0.1-0.4,0.4-0.3c1.8,0.6,3.5-0.1,5.6,0.4c2.1,1.1,4.5,2.3,5.7,4.4c1.4,2.2,3.9,6.1,4.3,8.5c-1.5,1-4.6,1.6-6.4,0.4
					c-1.8-1.2-2.1-3.5-2.2-4.1c-0.7-3.1-1.6-0.3-1.8,0.2c-0.2,0.9-1.2,5.2-1.6,6.4c-1.2,3.4-3.5,6.2-6.8,7.9
					C53.2,77.3,53,70.1,54.6,63.1z M57.7,73.2c0,0.1-0.2,0.4-0.5,0.3c-0.3-0.1-0.4-0.5-0.4-0.5s0-0.1,0.1-0.3
					c0.1-0.2,0.5-0.3,0.6-0.2C57.5,72.6,57.7,73,57.7,73.2z M47.5,92.5c-0.2,0.5-0.9,0.7-1.3,0.2c0,0-1.5-2.4-1.2-3.8
					c0.3-1.4,1-1.4,1.3-1.4c0.4,0,1.4,0.2,1.5,1.1C48,89.7,47.7,92,47.5,92.5z M49.9,92.2c-0.4,0.5-0.4-0.2-0.4-0.5
					c0-1.9,0.7-3-0.9-5.5c-0.5-0.9-0.4-1.1-0.3-1.4c0.4-1,1.6-2.2,2-0.1C50.9,86.8,51.4,90,49.9,92.2z M51.3,81.8
					c0-0.2,0.1-0.4,0.3-0.5c2.3-1.6,2.6-4.2,4.2-5.8c0.3-0.3,0.3-0.1,0.3,0.1c0,1.4,0.6,2.5-0.3,3.7c-0.6,0.8-1.9,0.8-2.1,2
					c-0.4,1,0.2,3-0.9,3.6c-0.2,0.1-0.5,0.1-0.7-0.3C51.6,83.7,51.2,82.8,51.3,81.8z M52.2,89.5c0-0.7-0.4-2.3,0.2-2.5
					c0.6-0.2,1.3-0.2,1.3,0.5c0,0.7,0.3,1.5,0.3,1.9C54.2,90.3,52.3,90.7,52.2,89.5z M55.5,92.7c-0.3,0.1-1.4,0.2-1.8,0.1
					c-0.3-0.1-0.7-0.5-0.3-0.8c0.4-0.4,1.4-0.2,1.4-0.2s0.1,0,0.6,0.2C55.9,92.1,55.8,92.6,55.5,92.7z M70.1,89.8
					c0,0.6-0.2,2.9-1,3.4c-0.8,0.5-1.5,0.1-1.7-0.6c-0.1-0.5,0.1-1.1-0.1-1.6c-0.2-0.4-0.3-0.4-1-0.3c-2.4,0.5-4.2,3.3-6.6,2.8
					c-1.7-0.4-2.6-1.7-3-2.4c-1.5-2.5-2.1-5.4-1.5-8.6c0-2.5,3.7-3,2.9-5.2c-0.1-0.2-0.2-0.6,0.4-0.5c0.6,0.2,1.3,1.2,1.9,0.6
					c0.3-0.3,0.2-0.6,0.2-0.7c-0.3-1-1.7-1-1.7-2c0.1-0.8,0.9-0.7,1.1-0.7c1.9,0.2,4.7,0.7,6.5-0.8c0.8-0.7,1.2-0.3,1.4,0.1
					c0.3,0.8,0.3,1.4,0.3,1.5c0,0.5,0.1,0.9,0,1.4c-0.1,0.4-0.2,1-1.7,1.1c-1.1,0.1-2.5-0.2-3.1,0.4c-0.3,0.3,0.1,0.4,0.2,0.5
					c0.9,0.6,2,1.2,2.8,0.7c0.3-0.2,0.5-0.3,0.7-0.3c0.7,0,0.6,0.6,0.6,0.8c0,0.7-0.6,1.3-0.8,2c-0.5,1.6-4.1,0.8-2.7,2.7
					c0.1,0.1,0.4,0.5-0.2,0.9c-0.6,0.4-4,1-4.7,3c-0.2,0.6,0.3,0.7,0.5,0.8c0.6,0.1,1.4-0.3,1.6,0.2c0.3,0.7,0.9,0.2,1.1,0
					c1.5-1.1,2-3.5,4.3-2.4c0.9,0.4,2,0.8,2.6,1.5C70,88.8,70.1,89.2,70.1,89.8z M72,92.5c0,0-0.4,0.5-0.8,0.1
					C71,92.5,71,92,71.1,91.7c0.1-0.3,0.1-1.8,0-2c0-0.3,0-0.4,0.3-0.7c0.3-0.3,0.9,0.3,1.3,0.9C73.1,90.6,72,92.5,72,92.5z"/>
				<path d="M31.6,87.1c-0.6-0.2-1.3,0.1-2.3-0.1c-0.9-0.1-1-0.5-1.7-0.7c-0.8-0.2-2,0.1-2.6,0.9c-2.2,3.2-3.1,6-4.7,9.2
					c-0.5,1.3,0.5,2.1,2.2,2c0.7-0.1,1.4-0.2,2-0.1c0.9,0.1,1.7,0.5,2.6,0.8c1.4,0.6,1.9-0.4,2.1-0.8c1.6-3.6,2.4-6.5,3.1-8.3
					C33.1,88.5,33.1,87.5,31.6,87.1z M23,96.3c-0.2-0.1-0.6-0.2-0.4-1.2c0.2-1.2,2.1-4.8,3.2-6.6c0.9-1.5,2-0.9,2.1,0.2
					c0,1.1-2.7,6.8-3.2,7.4C24.3,96.5,23.6,96.5,23,96.3z M30.9,89.8c-0.2,0.7-1.9,5.6-2.4,6.7c-0.6,1.3-2.2,1-2.1-0.3
					c0.2-1.3,1.7-5.1,2.6-6.9c0.7-1.3,1.4-1.1,1.8-0.7C31,88.9,31,89.4,30.9,89.8z"/>
				<path d="M83.2,88.6c-0.5-0.1-2,0-2.3,0c-0.2,0-0.4-0.2-0.4-0.4c0,0,0-1.8,0-2.4c0-0.3-1.3-0.3-1.4,0c0,0,0,0,0,0
					c0,0.5,0,2.4,0,2.4c0,0.2-0.1,0.4-0.3,0.4c-0.3,0-1.8-0.1-2.3,0.1c-0.4,0.2-0.2,1.1,0,1.2c0.5,0.1,1.6,0,2.3,0.1
					c0.1,0,0.2,0.1,0.2,0.2c0.1,1.3,0.1,6.3,0.3,6.8c0.2,0.4,1.2,0.4,1.3-0.1c0.1-0.5,0-5.5,0-6.8c0-0.1,0.1-0.2,0.2-0.2
					c0.7,0,1.8,0,2.3-0.1C83.5,89.7,83.6,88.8,83.2,88.6z"/>
				<path d="M49.9,41.4c0.1,0.1,1.3,1,1.3,1s-0.5,1.3-0.6,1.6c-0.1,0.3,0,0.5,0.3,0.3c0.5-0.3,1.2-1,1.4-1c0.2,0,1.4,1,1.5,1.1
					c0.2,0,0.4,0,0.2-0.4c-0.1-0.4-0.5-1.6-0.5-1.6s1.3-1,1.5-1.1c0.1,0,0.1-0.3-0.2-0.3c-0.2,0-1.8,0-1.8,0s-0.5-1.4-0.5-1.6
					c-0.1-0.2-0.3-0.3-0.4,0c-0.1,0.2-0.6,1.6-0.6,1.6s-1.2,0-1.6,0C49.7,40.9,49.8,41.3,49.9,41.4z"/>
			</g>
		</g>
		<g>
			<path d="M22.6,23.4h1c0.5,0,0.7-0.1,0.8-0.1c0.1,0,0.1,0,0.2-0.3c0-0.2,0.1-0.4,0.1-0.8V10.1c0-0.5-0.1-0.6-0.1-0.6
				c0,0-0.2-0.1-0.5-0.1c-0.1,0-0.4,0-0.6,0.1c-0.2,0-0.4,0.1-0.4,0.1L22,9.8V7.4L26.7,7h1.1v15.3c0,0.6,0.1,0.9,0.1,1l0.1,0.1
				c0.1,0,0.2,0,0.4,0h1.1v2.1l-0.7,0c-0.7,0-1.8-0.1-2.7-0.1c-1.1,0-2.2,0-2.9,0.1l-0.7,0V23.4z"/>
			<polygon points="62.2,10.7 54.8,10.7 54.8,7.5 65.3,7.5 65.3,8.6 58.8,25.9 56,25.9 			"/>
			<path d="M75.6,22.7c1.1-1.4,2.7-3.2,4-4.7c1.2-1.4,2.9-3.7,2.9-6.2c0-1-0.3-2.1-1.2-3.1c-0.9-0.9-2.3-1.5-4.4-1.5
				c-1.3,0-2.6,0.3-3.8,0.8l-0.4,0.2l0,0.4c0,0.8-0.1,1.6-0.2,2.3l-0.2,0.8h1.4l0.2-0.2c0.7-0.7,2-1.3,3.1-1.3
				c0.8,0,1.4,0.2,1.7,0.5c0.3,0.3,0.6,0.7,0.6,1.5c0,0.7-0.1,1.2-0.5,2.2c-0.4,1-1.3,2.3-2.8,4.4l-2.1,2.8c-0.6,0.8-1,1.4-1.3,1.9
				c-0.3,0.5-0.4,1-0.5,1.4l-0.1,0.4l0.6,0.6H83v-3.2H75.6z"/>
			<path d="M46.3,16.8c-0.4-0.5-0.9-0.8-1.4-1.1c0.5-0.3,1-0.7,1.3-1.1c0.7-0.8,1.1-1.8,1.1-3c0-1.3-0.5-2.6-1.4-3.5
				c-0.9-0.9-2.2-1.4-3.7-1.4c-1.9,0-3.3,0.7-4.3,1.7c-0.9,1-1.4,2.4-1.4,3.7c0,1.3,0.5,2.3,1.2,3.1c0.4,0.4,0.9,0.8,1.4,1.1
				c-0.7,0.4-1.2,0.8-1.7,1.3c-0.7,0.8-1,1.8-1,3c0,1.7,0.8,3.1,1.8,3.9c1.1,0.8,2.3,1.2,3.4,1.2c2.3,0,3.8-0.9,4.7-2.1
				c0.9-1.2,1.1-2.5,1.1-3.4C47.6,18.7,47.1,17.6,46.3,16.8z M40.1,9.6c0.4-0.4,0.9-0.7,1.6-0.7c1.7,0,3,1.4,3,3.1
				c0,0.6-0.2,1.1-0.6,1.5c-0.3,0.4-0.8,0.7-1.3,1c-1-0.5-1.8-1.1-2.3-1.6c-0.6-0.6-0.9-1.2-0.9-1.7C39.5,10.6,39.7,10.1,40.1,9.6z
				 M44.3,22.7c-0.4,0.4-1,0.7-1.9,0.7c-0.8,0-1.6-0.4-2.2-1c-0.6-0.6-1-1.4-1-2.2c0-0.7,0.2-1.2,0.7-1.7c0.4-0.4,0.9-0.7,1.5-1
				c0.8,0.4,1.6,0.8,2.3,1.3c0.7,0.6,1.2,1.2,1.2,2.1C44.9,21.7,44.7,22.3,44.3,22.7z"/>
		</g>
	</g>
	<g id="DOANE_4_">
		<path d="M132.8,74.6c6.9-0.1,8.8-2.7,8.8-8.6V13.8c0-6-1.9-8.5-8.8-8.6V2c3.3,0.2,7.4,0.3,12.4,0.3C154.7,2.3,164,2,173,2
			c27,0,39.8,16.5,39.8,39c0,11.4-6.2,36.8-43.5,36.8c-8.1,0-16.5-0.3-25-0.3c-4.5,0-8.4,0.1-11.4,0.3V74.6z M155.1,66.3
			c0,5.6,2.5,7,10.4,7c16.9,0,31.5-7.4,31.5-31c0-14.8-4.8-24.9-11.5-30.7c-5.1-4.4-10.7-5.6-23-5.6h-7.4V66.3z"/>
		<path d="M271.4,2C294,2,314,17.7,314,40.5c0,20.3-15.6,38.6-41.2,38.6c-22.6,0-42.6-15.8-42.6-38.6C230.2,20.2,245.8,2,271.4,2z
			 M275.5,75.2c6.7,0,23-4.1,23-30c0-20.3-11.5-39.2-29.8-39.2c-6.7,0-23,4.1-23,30C245.7,56.2,257.2,75.2,275.5,75.2z"/>
		<path d="M319.8,74.6c7.4-0.4,9.4-1.5,15.3-15.8L358.7,2h1.8l29,64.7c2.8,6.2,5.3,7.9,10.9,7.9v3.2c-7.4-0.1-12.1-0.3-16.4-0.3
			c-4.3,0-8.9,0.2-16.3,0.3v-3.2c6,0,7.7-1.1,7.7-4c0-1.2-0.8-3.4-3-8.8l-4.3-10.1h-24.5l-3.1,8.7c-2.7,7.5-2.9,9-2.9,10.1
			c0,2.8,1.3,4,7.9,4.1v3.2c-9.2-0.3-10.3-0.3-12.8-0.3c-2.7,0-3.7,0-12.8,0.3V74.6z M366.3,47.7l-11.5-27.5L345,47.7H366.3z"/>
		<path d="M414.5,74.6c6.9-0.1,8.8-2.7,8.8-8.6V13.8c0-6-1.9-8.5-8.8-8.6V2c4.4,0.1,8.5,0.3,11.5,0.3c2.3,0,5.4-0.2,8.5-0.3
			l50.1,56.1l-0.3-43.8c0-6.4-1.5-9.2-9.2-9.2V2c3.9,0.1,8.2,0.3,11.5,0.3c3.4,0,7.7-0.2,11.8-0.3v3.2c-6.9,0.1-8.8,2.7-8.8,8.6
			v64.7h-4.3l-57.6-63.6l0.9,50c0.1,7.9,2.1,8.9,8.8,9.6v3.2c-3.2-0.2-8.9-0.3-11.5-0.3c-2.5,0-8.3,0.1-11.5,0.3V74.6z"/>
		<path d="M513.9,74.6c6.9-0.1,8.8-2.7,8.8-8.6V13.9c0-6-1.9-8.5-8.8-8.6V2.1c3.6,0.1,8.8,0.3,14.3,0.3c16.3,0,29.3-0.2,39.2-0.3
			l0.4,17.9h-3.4c-1.7-10.2-6.3-13.8-19-13.8h-9.3v30.7h8.2c9.7,0,11-3.5,11.8-10.2h3.6c-0.1,4.1-0.2,8.1-0.2,11.5
			c0,5,0.1,9,0.2,13.3h-3.6c0-8.4-2.7-10.5-11.9-10.5h-8.1v25.3c0,4.9,2,7.5,12,7.5c10.9,0,18.4-2,20.9-15.4h3.6
			c-0.6,5.1-1.6,14-1.6,19.5c-10.3-0.1-23.8-0.3-40.5-0.3c-8.2,0-14.6,0.2-16.7,0.3V74.6z"/>
	</g>
	<g id="University_4_">
		<path d="M218.6,104.7c-3.1,0-3.9,1.2-4,3.9l-0.2,15.4c-0.1,7-3,14.1-13.6,14.1c-8.9,0-15.7-3.8-15.7-14.1v-15.4
			c0-2.7-0.9-3.8-4-3.9v-1.4c3.9,0.1,5.5,0.1,7,0.1c1.5,0,3.2,0,7-0.1v1.4c-3.1,0-4,1.2-4,3.9v16.6c0,7.2,4.6,11.1,9.9,11.1
			c8.4,0,11.4-5.4,11.4-13.8c0-2.7-0.1-4.6-0.1-6.7l-0.1-7c-0.1-2.9-0.7-4.1-4.2-4.1v-1.4c1.8,0,3.7,0.1,5.2,0.1
			c1.5,0,3.5-0.1,5.3-0.1V104.7z"/>
		<path d="M224.9,136c3.1,0,4-1.2,4-3.9v-23.6c0-2.7-0.9-3.8-4-3.9v-1.4c2,0,3.9,0.1,5.2,0.1c1.1,0,2.5-0.1,3.8-0.1l22.7,25.3
			l-0.1-19.8c0-2.9-0.7-4.1-4.1-4.1v-1.4c1.8,0,3.7,0.1,5.2,0.1c1.5,0,3.5-0.1,5.3-0.1v1.4c-3.1,0-4,1.2-4,3.9v29.2h-1.9l-26-28.7
			l0.4,22.6c0,3.6,1,4,4,4.3v1.4c-1.4-0.1-4-0.1-5.2-0.1c-1.2,0-3.8,0.1-5.2,0.1V136z"/>
		<path d="M269.2,136.3c3.2,0,4-1.2,4-3.9v-23.8c0-2.7-0.9-3.9-4-3.9v-1.5c3.9,0.1,5.5,0.1,7.1,0.1c1.6,0,3.2,0,7.1-0.1v1.5
			c-3.2,0.1-4,1.2-4,3.9v23.8c0,2.7,0.9,3.9,4,3.9v1.5c-3.9-0.1-5.5-0.1-7.1-0.1c-1.6,0-3.2,0.1-7.1,0.1V136.3z"/>
		<path d="M326.1,104.7c-3.6,0-4.3,0.5-6.4,5.6l-11.4,27.6h-1.3l-13.8-29.7c-1.3-2.9-2.5-3.4-4.7-3.5v-1.4c3.3,0.1,5.5,0.1,7.7,0.1
			c2.2,0,4.4,0,7.8-0.1v1.4h-1.9c-1.7,0-2.5,0.7-2.5,1.8c0,0.5,0.1,0.9,1.8,4.6l8.6,19.2l7.2-20.5c0.4-1.3,0.8-2.4,0.8-3.3
			c0-1.5-1.3-1.8-3.4-1.8v-1.4c2.8,0.1,4.3,0.1,5.7,0.1c1.3,0,2.9,0,5.6-0.1V104.7z"/>
		<path d="M331.2,136.3c3.2,0,4-1.2,4-3.9v-23.8c0-2.7-0.9-3.9-4-3.9v-1.5c1.6,0,4,0.1,6.5,0.1c7.4,0,13.4-0.1,17.9-0.1l0.2,8.2
			h-1.6c-0.8-4.7-2.9-6.3-8.7-6.3h-4.2v14h3.8c4.4,0,5-1.6,5.4-4.7h1.6c-0.1,1.9-0.1,3.7-0.1,5.2c0,2.3,0,4.1,0.1,6.1h-1.6
			c0-3.8-1.2-4.8-5.4-4.8h-3.7v11.6c0,2.2,0.9,3.5,5.5,3.5c5,0,8.4-0.9,9.6-7.1h1.7c-0.3,2.3-0.7,6.4-0.7,8.9
			c-4.7,0-10.9-0.1-18.5-0.1c-3.7,0-6.7,0.1-7.6,0.1V136.3z"/>
		<path d="M365.4,136.3c3.2,0,4-1.2,4-3.9v-23.8c0-2.7-0.9-3.9-4-3.9v-1.5c2.3,0,4.2,0.1,6,0.1c3.2,0,6.3-0.1,9.5-0.1
			c8.5,0,11.1,4.2,11.1,9c0,3.3-2,7-6.8,8.5l6.1,11.2c2.2,4,3.4,5,6.1,5.4v1.2c-0.7,0-1.5,0.1-2.2,0.1c-6.5,0-9.1-2.2-11.9-8l-1.9-4
			c-2-4.3-2.7-4.7-6-4.7v10.7c0,2.7,0.9,3.9,4,3.9v1.5c-3.9-0.1-5.6-0.1-7.1-0.1c-1.5,0-3.2,0.1-7.1,0.1V136.3z M375.5,119.9
			c0.9,0.2,2.2,0.3,3.2,0.3c4.4,0,7-2,7-6.7c0-3.5-1.8-8.8-8.1-8.8c-0.9,0-1.4,0.1-2.1,0.2V119.9z"/>
		<path d="M403.3,128.2h1.9c1.2,5.6,5.9,8.1,9.2,8.1c4.7,0,7-3,7-5.7c0-7.7-17.6-7.3-17.6-18c0-2.4,1.4-10,12.1-10
			c2.6,0,6.2,0.3,8.9,1.2l0.3,8.5h-1.8c-0.5-4.9-3.7-7.9-8.8-7.9c-3.9,0-6.2,2.5-6.2,5.1c0,7,17.8,7.6,17.8,18.4
			c0,5.7-4.1,10.2-12,10.2c-3.1,0-7.1-0.6-10.5-1.6L403.3,128.2z"/>
		<path d="M433.8,136.3c3.1,0,4-1.2,4-3.9v-23.7c0-2.7-0.9-3.9-4-3.9v-1.5c3.9,0.1,5.5,0.1,7.1,0.1c1.6,0,3.2,0,7.1-0.1v1.5
			c-3.1,0.1-4,1.2-4,3.9v23.7c0,2.7,0.9,3.9,4,3.9v1.5c-3.9-0.1-5.5-0.1-7.1-0.1c-1.6,0-3.2,0.1-7.1,0.1V136.3z"/>
		<path d="M463.7,136.3c3.2,0,4-1.2,4-3.9v-26.7h-4.3c-3.9,0-6.4,1.1-6.7,7.2h-1.8l0.3-9.6c5.2,0,10.4,0.1,15.6,0.1
			c5.2,0.1,10.4-0.1,15.6-0.1l0.3,9.6h-1.8c-0.3-6.1-2.9-7.2-6.7-7.2h-4.3v26.7c0,2.7,0.9,3.9,4,3.9v1.5c-3.9-0.1-5.5-0.1-7.1-0.1
			c-1.5,0-3.2,0.1-7.1,0.1V136.3z"/>
		<path d="M490.9,103.2c4,0.1,6.2,0.1,8.4,0.1c2.2,0,4.4,0,7.2-0.1v1.5h-1.3c-1.7,0-2.5,0.7-2.5,1.8c0,0.5,0.1,0.9,1.8,4.7l5.2,11.5
			l6.4-13c0.7-1.5,1-2.4,1-3c0-1.8-1.4-2-3.4-2v-1.5c2.3,0.1,3.9,0.1,5.4,0.1c1.5,0,3.1,0,5.4-0.1v1.5c-2.1,0-3.3,0.9-4.2,2.5
			l-9.8,18.1v7.1c0,2.7,0.9,3.9,4,3.9v1.5c-3.9-0.1-5.5-0.1-7.1-0.1c-1.5,0-3.2,0-7.1,0.1v-1.5c3.1,0,4-1.2,4-3.9v-7.1l-7.9-17.1
			c-1.3-3-2.5-3.4-5.4-3.5V103.2z"/>
	</g>
</g>
<g id="Layer_1">
</g>
</svg>
