<?xml version="1.0" encoding="utf-8"?>
<!-- Generator: Adobe Illustrator 22.1.0, SVG Export Plug-In . SVG Version: 6.00 Build 0)  -->
<svg version="1.1" xmlns="http://www.w3.org/2000/svg" xmlns:xlink="http://www.w3.org/1999/xlink" x="0px" y="0px"
	 viewBox="0 0 428.5 305.6" style="enable-background:new 0 0 428.5 305.6;" xml:space="preserve">
<style type="text/css">
	.st0{fill:#231F20;}
	.st1{fill:#F68B1F;}
	.st2{fill:#FFFFFF;}
</style>
<g id="_x34_C-REV">
	<g>
		<g id="S-Fill_1_">
			<path class="st0" d="M264.8,31.4h-101v38.7c0,13.5,3.5,24.7,8.8,33.9c14.5,25.2,41.7,34.4,41.7,34.4s27.2-9.3,41.7-34.4
				c5.2-9.2,8.8-20.3,8.8-33.9V31.4z"/>
		</g>
		<g id="R-Fill_1_">
			<rect x="163.7" y="2" class="st1" width="101" height="27.4"/>
		</g>
		<g id="S-Outline_1_">
			<path class="st2" d="M264.8,31.4v38.7c0,13.5-3.6,24.7-8.8,33.9c-14.6,25.2-41.7,34.4-41.7,34.4s-27.2-9.3-41.7-34.4
				c-5.2-9.2-8.8-20.3-8.8-33.9V31.4H264.8 M266.8,29.4h-2h-101h-2v2v38.7c0,12.7,3,24.4,9,34.9c14.7,25.5,41.7,35,42.8,35.3
				l0.6,0.2l0.6-0.2c1.1-0.4,28.1-9.8,42.8-35.3c6-10.6,9-22.3,9-34.9V31.4V29.4L266.8,29.4z"/>
		</g>
		<g id="R-Outline_1_">
			<path class="st2" d="M264.8,2v27.4h-101V2H264.8 M266.8,0h-2h-101h-2v2v27.4v2h2h101h2v-2V2V0L266.8,0z"/>
		</g>
		<path class="st1" d="M214.2,31.5l-40.9,71.7c0,0,0,0.1,0,0.1h81.9c0,0,0-0.1,0-0.1L214.2,31.5L214.2,31.5z"/>
		<g>
			<g>
				<path class="st0" d="M235.2,93.5c-0.8-1,0.5-2.3,0.4-3.5c-0.3-2.9-7-3.8-7.3-5.5c-0.2-0.9,0.6-1.4,0.9-1.7
					c1.3-1.4,2.2-3.1,1.9-5.3c1.1-1.6,0.3-3.9-0.1-5.6c-0.2-0.6-0.3-1-1.2-1.3c-2.7-3.2-3.9-6.6-6.2-9.3c-2.3-2.7-3.6-2.3-4.9-3.3
					c-1.1-1.3,1-2.5,0.3-4.1c-1-1.6-3.3,0.2-5-0.5c-0.7-0.3-0.9-0.4-2-0.2c-3.2,0.6-4.3,3.2-2.7,3.9c0.4,0.2,0.8,0.4,0.9,0.7
					c0.3,1.3,0,2.9,1.1,3.8c0.9,0.5,2.2-0.3,3.1,0.1c0.6,0.3,0.7,0.7,0.7,1.2c0,0.3,0,3.2-1.2,4.2c-4,3.6-5.3-3.3-8.2-4.8
					c0-0.2,0-0.4-0.1-0.6c0-0.2-0.3-0.9-1.1-0.4c-0.7,0.6-1.4,1.7-1.5,2.3c-0.1,0.6,0.1,0.8,0.4,1c3.1,2.1,4.2,4.9,5.8,7.5
					c-0.6,2.5-0.6,5.8,0.1,8.6c-0.6,1.9-2.9,1.8-3.9,3.2c-0.6,1,0.2,1.3,0.9,1.6c0.6,0.3,0.3,0.5,0.2,0.7c-0.1,0.2-1.4,1.5-1.4,3.3
					c0,1.9,1.4,2.9,0.2,4c-0.4,0.3-0.8,0.2-1.2,0c-0.3-0.1-0.8-0.2-0.8-1.2c-0.2-2-0.7-6.8-1.5-8.4c0,0,0.3-3,0.2-5.4
					c-0.1-1.9-0.1-4.6,0.6-6.3c0.2-0.5,0.8-0.5,0.9-1c0.1-0.5-0.4-0.7-0.8-1.1c-0.2-1.5,1.6-1,2.1-2c0.7-1.4-0.9-2.3-2.5-1.2
					c-1.1,0.8-1.9,0-2.6-1c-0.4-0.5-1.5-0.3-1.9,0.2c-0.8,1.3,0.4,2.6,1,3.6c-0.2,0.5-1.9,0.2-1.8,1.5c0.1,0.6,0.6,0.4,0.8,0.9
					c0.7,1.6-0.1,4.1-0.3,5.4c-0.3,2-0.6,6.6-0.6,6.6c-0.8,0.9-1.1,3.9-1.4,6.3c-0.1,1.9-2.2,3.4-1.1,5.2l44-0.1l0-0.4
					C238.7,92.9,236.1,94.6,235.2,93.5z M198.8,76.6c0.2-1.9,0.6-3.8,0.7-4.6c0.1-0.9,2.1-1.1,1.5,0.9c-0.6,1.9,0.8,7.8-0.7,11.6
					c-0.4,0.8-1.2,1.4-1.5,0.1C198.3,81.9,198.5,79.3,198.8,76.6z M200.9,92.8c-0.9,0.4-1-0.3-1-1c-0.2-0.7,0.5-1.9-0.6-2
					c-1.7,0.1-0.9,2.5-1.9,2.9c-0.4,0.2-0.9,0-0.9-0.7c0.2-1.5,0.6-3.3,0.9-4.3c0.3-1,1.4-0.4,1.9-0.4c0.8-0.1,1.6-0.7,1.8,0.4
					c0.1,0.7,0.3,3.6,0.3,3.6C201.6,91.9,201.4,92.6,200.9,92.8z M201.4,69c-0.2,0.1-0.9,0.1-1.2,0.1c-0.2-0.1-0.5-0.4-0.2-0.7
					c0.3-0.3,0.9-0.2,0.9-0.2s0.1,0,0.4,0.2C201.7,68.5,201.6,69,201.4,69z M206.4,65.7c-0.5-0.3-0.3-0.5-0.2-0.6
					c0.2-0.2,0.4-0.2,0.7,0c0.4,0.3,3,3.2,3.7,3.9c0.2,0.2,0.6,0.5,1.5,0.1c0.3-0.1,0.8-0.3,1-0.4c1-0.4,1,0.4,0.8,0.9
					c-0.2,0.6-0.3,1.4-2.9,1.7c-0.4,0-0.8-0.3-1-0.5C208.6,69.2,207.8,67.2,206.4,65.7z M213,74c0,0-0.7,2.1-1.2,3.1
					c-1.2,2.3-1.9,0.5-1.9-0.2c0-0.7-0.1-1.8,0.5-3.2c0.5-1.1,1.4-1.3,2-1.3C212.8,72.5,213.3,73.2,213,74z M216.3,63.1
					c0.4-1.5-0.2-1.8-0.6-2.2c-1-0.9-3.8,0-3.8-1.9c0-0.1,0.1-0.4,0.4-0.3c1.8,0.6,3.5-0.1,5.6,0.4c2.1,1.1,4.5,2.3,5.7,4.4
					c1.4,2.2,3.9,6.1,4.3,8.5c-1.5,1-4.6,1.6-6.4,0.4c-1.8-1.2-2.1-3.5-2.2-4.1c-0.7-3.1-1.6-0.3-1.8,0.2c-0.2,0.9-1.2,5.2-1.6,6.4
					c-1.2,3.4-3.5,6.2-6.8,7.9C214.9,77.3,214.7,70.1,216.3,63.1z M219.4,73.2c0,0.1-0.2,0.4-0.5,0.3c-0.3-0.1-0.4-0.5-0.4-0.5
					s0-0.1,0.1-0.3c0.1-0.2,0.5-0.3,0.6-0.2C219.3,72.6,219.4,73,219.4,73.2z M209.2,92.5c-0.2,0.5-0.9,0.7-1.3,0.2
					c0,0-1.5-2.4-1.2-3.8c0.3-1.4,1-1.4,1.3-1.4c0.4,0,1.4,0.2,1.5,1.1C209.8,89.7,209.5,92,209.2,92.5z M211.7,92.2
					c-0.4,0.5-0.4-0.2-0.4-0.5c0-1.9,0.7-3-0.9-5.5c-0.5-0.9-0.4-1.1-0.3-1.4c0.4-1,1.6-2.2,2-0.1C212.6,86.8,213.2,90,211.7,92.2z
					 M213,81.8c0-0.2,0.1-0.4,0.3-0.5c2.3-1.6,2.6-4.2,4.2-5.8c0.3-0.3,0.3-0.1,0.3,0.1c0,1.4,0.6,2.5-0.3,3.7
					c-0.6,0.8-1.9,0.8-2.1,2c-0.4,1,0.2,3-0.9,3.6c-0.2,0.1-0.5,0.1-0.7-0.3C213.4,83.7,212.9,82.8,213,81.8z M214,89.5
					c0-0.7-0.4-2.3,0.2-2.5c0.6-0.2,1.3-0.2,1.3,0.5c0,0.7,0.3,1.5,0.3,1.9C215.9,90.3,214,90.7,214,89.5z M217.2,92.7
					c-0.3,0.1-1.4,0.2-1.8,0.1c-0.3-0.1-0.7-0.5-0.3-0.8c0.4-0.4,1.4-0.2,1.4-0.2s0.1,0,0.6,0.2C217.6,92.1,217.6,92.6,217.2,92.7z
					 M231.8,89.8c0,0.6-0.2,2.9-1,3.4c-0.8,0.5-1.5,0.1-1.7-0.6c-0.1-0.5,0.1-1.1-0.1-1.6c-0.2-0.4-0.3-0.4-1-0.3
					c-2.4,0.5-4.2,3.3-6.6,2.8c-1.7-0.4-2.6-1.7-3-2.4c-1.5-2.5-2.1-5.4-1.5-8.6c0-2.5,3.7-3,2.9-5.2c-0.1-0.2-0.2-0.6,0.4-0.5
					c0.6,0.2,1.3,1.2,1.9,0.6c0.3-0.3,0.2-0.6,0.2-0.7c-0.3-1-1.7-1-1.7-2c0.1-0.8,0.9-0.7,1.1-0.7c1.9,0.2,4.7,0.7,6.5-0.8
					c0.8-0.7,1.2-0.3,1.4,0.1c0.3,0.8,0.3,1.4,0.3,1.5c0,0.5,0.1,1,0,1.4c-0.1,0.4-0.2,1-1.7,1.1c-1.1,0.1-2.5-0.2-3.1,0.4
					c-0.3,0.3,0.1,0.4,0.2,0.5c0.9,0.6,2,1.2,2.8,0.7c0.3-0.2,0.5-0.3,0.7-0.3c0.7,0,0.6,0.6,0.6,0.8c0,0.7-0.6,1.3-0.8,2
					c-0.5,1.6-4.1,0.8-2.7,2.7c0.1,0.1,0.4,0.5-0.2,0.9c-0.6,0.4-4,1-4.7,3c-0.2,0.6,0.3,0.7,0.5,0.8c0.6,0.1,1.4-0.3,1.6,0.2
					c0.3,0.7,0.9,0.2,1.1,0c1.5-1.1,2-3.5,4.3-2.4c0.9,0.4,2,0.8,2.6,1.5C231.8,88.8,231.8,89.2,231.8,89.8z M233.7,92.5
					c0,0-0.4,0.5-0.8,0.1c-0.2-0.2-0.2-0.6-0.1-0.9c0.1-0.3,0.1-1.8,0.1-2c0-0.3,0-0.4,0.3-0.7c0.3-0.3,0.9,0.3,1.3,0.9
					C234.9,90.6,233.7,92.5,233.7,92.5z"/>
				<path class="st0" d="M193.4,87.1c-0.6-0.2-1.3,0.1-2.3,0c-0.9-0.1-1-0.5-1.7-0.7c-0.8-0.2-2,0.1-2.6,0.9c-2.2,3.2-3.1,6-4.7,9.2
					c-0.5,1.3,0.5,2.1,2.2,2c0.7-0.1,1.4-0.2,2-0.1c0.9,0.1,1.7,0.5,2.6,0.8c1.4,0.6,1.9-0.4,2.1-0.8c1.6-3.6,2.4-6.5,3.1-8.3
					C194.9,88.5,194.8,87.5,193.4,87.1z M184.8,96.3c-0.2-0.1-0.6-0.2-0.4-1.2c0.2-1.2,2.1-4.8,3.2-6.6c0.9-1.5,2-0.9,2.1,0.2
					c0,1.1-2.7,6.8-3.2,7.4C186.1,96.5,185.3,96.5,184.8,96.3z M192.6,89.8c-0.2,0.6-1.9,5.6-2.4,6.7c-0.6,1.3-2.2,1-2.1-0.3
					c0.2-1.4,1.7-5.1,2.6-6.9c0.7-1.3,1.4-1.1,1.8-0.7C192.8,88.9,192.7,89.4,192.6,89.8z"/>
				<path class="st0" d="M245,88.6c-0.5-0.1-2,0-2.3,0c-0.2,0-0.4-0.2-0.4-0.4c0,0,0-1.8,0-2.4c0-0.3-1.3-0.3-1.4,0c0,0,0,0,0,0
					c0,0.5,0,2.4,0,2.4c0,0.2-0.1,0.4-0.3,0.4c-0.3,0-1.8-0.1-2.3,0.1c-0.4,0.2-0.2,1.1,0,1.2c0.5,0.1,1.6,0,2.3,0.1
					c0.1,0,0.2,0.1,0.2,0.2c0.1,1.3,0.1,6.3,0.3,6.8c0.2,0.4,1.2,0.4,1.3-0.1c0.1-0.5,0-5.5,0-6.8c0-0.1,0.1-0.2,0.2-0.2
					c0.7,0,1.8,0,2.3-0.1C245.2,89.7,245.4,88.8,245,88.6z"/>
				<path class="st0" d="M211.7,41.4c0.1,0.1,1.3,1,1.3,1s-0.5,1.3-0.6,1.6c-0.1,0.3,0,0.5,0.3,0.3c0.5-0.3,1.2-1,1.4-1
					c0.2,0,1.4,1,1.5,1.1c0.2,0,0.4,0,0.2-0.4c-0.1-0.4-0.5-1.6-0.5-1.6s1.3-1,1.5-1.1c0.1,0,0.1-0.3-0.2-0.3c-0.2,0-1.8,0-1.8,0
					s-0.5-1.4-0.5-1.6c-0.1-0.2-0.3-0.3-0.4,0c-0.1,0.2-0.6,1.6-0.6,1.6s-1.2,0-1.6,0C211.4,40.9,211.5,41.3,211.7,41.4z"/>
			</g>
		</g>
		<g>
			<path class="st0" d="M184.3,23.4h1c0.5,0,0.7-0.1,0.8-0.1c0.1,0,0.1,0,0.2-0.3c0-0.2,0.1-0.4,0.1-0.8V10.1c0-0.5-0.1-0.6-0.1-0.6
				c0,0-0.2-0.1-0.5-0.1c-0.1,0-0.4,0-0.6,0.1c-0.2,0-0.4,0.1-0.4,0.1l-0.9,0.3V7.4l4.8-0.5h1.1v15.3c0,0.6,0.1,0.9,0.1,1l0.1,0.1
				c0.1,0,0.2,0,0.4,0h1.1v2.1l-0.7,0c-0.7,0-1.8-0.1-2.7-0.1c-1.1,0-2.2,0-2.9,0.1l-0.7,0V23.4z"/>
			<polygon class="st0" points="223.9,10.7 216.5,10.7 216.5,7.5 227.1,7.5 227.1,8.6 220.6,25.9 217.8,25.9 			"/>
			<path class="st0" d="M237.3,22.7c1.1-1.4,2.7-3.2,4-4.7c1.2-1.4,2.9-3.7,2.9-6.2c0-1-0.3-2.1-1.2-3.1c-0.9-0.9-2.3-1.5-4.4-1.5
				c-1.3,0-2.6,0.3-3.8,0.8l-0.4,0.2l0,0.4c0,0.8-0.1,1.6-0.2,2.3l-0.2,0.8h1.4l0.2-0.2c0.7-0.7,2-1.3,3.1-1.3
				c0.8,0,1.4,0.2,1.7,0.5c0.3,0.3,0.6,0.7,0.6,1.5c0,0.7-0.1,1.2-0.5,2.2c-0.4,1-1.3,2.3-2.8,4.4l-2.1,2.8c-0.6,0.8-1,1.4-1.3,1.9
				c-0.3,0.5-0.4,1-0.5,1.4l-0.1,0.4l0.6,0.6h10.6v-3.2H237.3z"/>
			<path class="st0" d="M208.1,16.8c-0.4-0.5-0.9-0.8-1.4-1.1c0.5-0.3,1-0.7,1.3-1.1c0.7-0.8,1.1-1.8,1.1-3c0-1.3-0.5-2.6-1.4-3.5
				c-0.9-0.9-2.2-1.4-3.7-1.4c-1.9,0-3.3,0.7-4.3,1.7c-0.9,1-1.4,2.4-1.4,3.7c0,1.3,0.5,2.3,1.2,3.1c0.4,0.4,0.9,0.8,1.4,1.1
				c-0.7,0.4-1.2,0.8-1.7,1.3c-0.7,0.8-1,1.8-1,3c0,1.7,0.8,3.1,1.8,3.9c1.1,0.8,2.3,1.2,3.4,1.2c2.3,0,3.8-0.9,4.7-2.1
				c0.9-1.2,1.1-2.5,1.1-3.4C209.3,18.7,208.8,17.6,208.1,16.8z M201.8,9.6c0.4-0.4,0.9-0.7,1.6-0.7c1.7,0,3,1.4,3,3.1
				c0,0.6-0.2,1.1-0.6,1.5c-0.3,0.4-0.8,0.7-1.3,1c-1-0.5-1.8-1.1-2.3-1.6c-0.6-0.6-0.9-1.2-0.9-1.7
				C201.3,10.6,201.5,10.1,201.8,9.6z M206,22.7c-0.4,0.4-1,0.7-1.9,0.7c-0.8,0-1.6-0.4-2.2-1c-0.6-0.6-1-1.4-1-2.2
				c0-0.7,0.2-1.2,0.7-1.7c0.4-0.4,0.9-0.7,1.5-1c0.8,0.4,1.6,0.8,2.3,1.3c0.7,0.6,1.2,1.2,1.2,2.1C206.6,21.7,206.4,22.3,206,22.7z
				"/>
		</g>
	</g>
	<g id="DOANE_1_">
		<g>
			<path class="st0" d="M0,243.4c6.7-0.1,8.6-2.6,8.6-8.4v-50.8c0-5.8-1.9-8.3-8.6-8.4v-3.1c3.2,0.2,7.2,0.3,12.1,0.3
				c9.1,0,18.3-0.3,27-0.3c26.3,0,38.8,16.1,38.8,38c0,11.1-6,35.9-42.4,35.9c-7.9,0-16.1-0.3-24.4-0.3c-4.4,0-8.2,0.1-11.1,0.3
				V243.4z M21.7,235.3c0,5.5,2.4,6.9,10.2,6.9c16.5,0,30.7-7.2,30.7-30.2c0-14.4-4.7-24.3-11.2-29.9c-5-4.3-10.4-5.5-22.4-5.5h-7.3
				V235.3z"/>
		</g>
		<g>
			<path class="st0" d="M135,172.7c22,0,41.5,15.4,41.5,37.6c0,19.8-15.2,37.6-40.1,37.6c-22,0-41.5-15.4-41.5-37.6
				C94.9,190.5,110.1,172.7,135,172.7z M139,244c6.5,0,22.4-4,22.4-29.2c0-19.8-11.2-38.2-29-38.2c-6.5,0-22.4,4-22.4,29.2
				C110,225.5,121.2,244,139,244z"/>
		</g>
		<g>
			<path class="st0" d="M182.2,243.4c7.2-0.4,9.2-1.5,14.9-15.4l22.9-55.3h1.8l28.2,63c2.7,6,5.2,7.7,10.6,7.7v3.1
				c-7.2-0.1-11.8-0.3-15.9-0.3c-4.2,0-8.6,0.2-15.9,0.3v-3.1c5.8,0,7.5-1,7.5-3.9c0-1.1-0.7-3.3-2.9-8.5l-4.2-9.8h-23.9l-3,8.4
				c-2.6,7.3-2.8,8.7-2.8,9.8c0,2.7,1.3,3.8,7.7,4v3.1c-9-0.3-10-0.3-12.5-0.3c-2.6,0-3.7,0-12.5,0.3V243.4z M227.5,217.2
				l-11.2-26.8l-9.6,26.8H227.5z"/>
		</g>
		<g>
			<path class="st0" d="M274.4,243.4c6.8-0.1,8.6-2.6,8.6-8.4v-50.8c0-5.8-1.9-8.3-8.6-8.4v-3.1c4.3,0.1,8.3,0.3,11.2,0.3
				c2.3,0,5.3-0.2,8.3-0.3l48.9,54.7l-0.3-42.6c0-6.2-1.5-8.9-8.9-8.9v-3.1c3.8,0.1,8,0.3,11.2,0.3c3.3,0,7.5-0.2,11.5-0.3v3.1
				c-6.7,0.1-8.6,2.6-8.6,8.4v63.1h-4.2l-56.1-61.9l0.8,48.7c0.1,7.7,2.1,8.7,8.6,9.3v3.1c-3.1-0.2-8.7-0.3-11.2-0.3
				c-2.5,0-8.1,0.1-11.2,0.3V243.4z"/>
		</g>
		<g>
			<path class="st0" d="M371.3,243.4c6.7-0.1,8.6-2.6,8.6-8.4v-50.8c0-5.8-1.9-8.3-8.6-8.4v-3.1c3.5,0.1,8.6,0.3,13.9,0.3
				c15.8,0,28.6-0.2,38.2-0.3l0.4,17.4h-3.3c-1.7-9.9-6.1-13.5-18.5-13.5h-9v29.9h8c9.4,0,10.8-3.4,11.5-9.9h3.5
				c-0.1,4-0.2,7.9-0.2,11.2c0,4.9,0.1,8.8,0.2,12.9h-3.5c0-8.2-2.6-10.3-11.6-10.3h-7.9v24.7c0,4.8,2,7.4,11.7,7.4
				c10.6,0,17.9-2,20.4-15h3.5c-0.6,5-1.6,13.7-1.6,19c-10-0.1-23.2-0.3-39.5-0.3c-8,0-14.2,0.2-16.3,0.3V243.4z"/>
		</g>
	</g>
	<g id="University_1_">
		<g>
			<path class="st0" d="M83.6,272.7c-3,0-3.8,1.2-3.9,3.8l-0.2,15c-0.1,6.8-3,13.7-13.3,13.7c-8.7,0-15.3-3.8-15.3-13.8v-15
				c0-2.6-0.8-3.7-3.9-3.8v-1.4c3.8,0.1,5.3,0.1,6.8,0.1c1.5,0,3.1,0,6.8-0.1v1.4c-3.1,0-3.9,1.2-3.9,3.8v16.2
				c0,7,4.4,10.8,9.7,10.8c8.2,0,11.1-5.2,11.1-13.4c0-2.6-0.1-4.5-0.1-6.6l-0.1-6.8c-0.1-2.8-0.7-4-4.1-4v-1.4
				c1.7,0,3.6,0.1,5.1,0.1c1.5,0,3.4-0.1,5.2-0.1V272.7z"/>
		</g>
		<g>
			<path class="st0" d="M89.7,303.3c3.1,0,3.9-1.2,3.9-3.8v-23c0-2.6-0.8-3.7-3.9-3.8v-1.4c1.9,0,3.8,0.1,5.1,0.1
				c1,0,2.4-0.1,3.7-0.1l22.1,24.7l-0.1-19.3c0-2.8-0.7-4-4-4v-1.4c1.7,0,3.6,0.1,5.1,0.1c1.5,0,3.4-0.1,5.2-0.1v1.4
				c-3,0-3.9,1.2-3.9,3.8V305h-1.9l-25.3-28l0.4,22c0,3.5,0.9,3.9,3.9,4.2v1.4c-1.4-0.1-3.9-0.1-5.1-0.1c-1.1,0-3.7,0.1-5.1,0.1
				V303.3z"/>
		</g>
		<g>
			<path class="st0" d="M132.8,303.6c3.1,0,3.9-1.2,3.9-3.8v-23.2c0-2.7-0.8-3.8-3.9-3.8v-1.4c3.8,0.1,5.4,0.1,6.9,0.1
				c1.5,0,3.1,0,6.9-0.1v1.4c-3.1,0.1-3.9,1.2-3.9,3.8v23.2c0,2.6,0.9,3.8,3.9,3.8v1.4c-3.8-0.1-5.4-0.1-6.9-0.1
				c-1.5,0-3.1,0.1-6.9,0.1V303.6z"/>
		</g>
		<g>
			<path class="st0" d="M188.3,272.7c-3.5,0-4.2,0.5-6.2,5.4L171,305h-1.2l-13.4-28.9c-1.3-2.9-2.4-3.3-4.6-3.4v-1.4
				c3.2,0.1,5.4,0.1,7.5,0.1c2.2,0,4.3,0,7.5-0.1v1.4h-1.9c-1.7,0-2.4,0.7-2.4,1.8c0,0.5,0.1,0.8,1.8,4.5l8.4,18.7l7.1-20
				c0.4-1.3,0.8-2.3,0.8-3.2c0-1.5-1.3-1.8-3.3-1.8v-1.4c2.7,0.1,4.2,0.1,5.5,0.1c1.3,0,2.8,0,5.5-0.1V272.7z"/>
		</g>
		<g>
			<path class="st0" d="M193.3,303.6c3.1,0,3.9-1.2,3.9-3.8v-23.2c0-2.7-0.8-3.8-3.9-3.8v-1.4c1.6,0,3.9,0.1,6.3,0.1
				c7.2,0,13.1-0.1,17.5-0.1l0.2,8h-1.5c-0.7-4.6-2.8-6.2-8.5-6.2h-4.1v13.7h3.7c4.3,0,4.9-1.6,5.2-4.5h1.6c0,1.8-0.1,3.6-0.1,5.1
				c0,2.2,0,4,0.1,5.9h-1.6c0-3.7-1.2-4.7-5.3-4.7h-3.6v11.3c0,2.2,0.9,3.4,5.3,3.4c4.8,0,8.2-0.9,9.3-6.9h1.6
				c-0.3,2.3-0.7,6.3-0.7,8.7c-4.6,0-10.6-0.1-18-0.1c-3.6,0-6.5,0.1-7.4,0.1V303.6z"/>
		</g>
		<g>
			<path class="st0" d="M226.6,303.6c3.1,0,3.9-1.2,3.9-3.8v-23.2c0-2.7-0.9-3.8-3.9-3.8v-1.4c2.2,0,4.1,0.1,5.9,0.1
				c3.1,0,6.2-0.1,9.3-0.1c8.2,0,10.8,4.1,10.8,8.8c0,3.2-2,6.8-6.6,8.2l5.9,10.9c2.1,3.9,3.3,4.8,6,5.2v1.1c-0.7,0-1.4,0.1-2.2,0.1
				c-6.3,0-8.9-2.2-11.5-7.8l-1.9-3.9c-2-4.2-2.6-4.5-5.8-4.6v10.5c0,2.6,0.9,3.8,3.9,3.8v1.4c-3.8-0.1-5.4-0.1-6.9-0.1
				c-1.5,0-3.1,0.1-6.9,0.1V303.6z M236.5,287.5c0.9,0.2,2.2,0.3,3.1,0.3c4.3,0,6.8-1.9,6.8-6.5c0-3.5-1.8-8.6-7.9-8.6
				c-0.9,0-1.4,0.1-2,0.2V287.5z"/>
		</g>
		<g>
			<path class="st0" d="M263.5,295.6h1.8c1.1,5.4,5.7,7.9,8.9,7.9c4.6,0,6.8-3,6.8-5.5c0-7.5-17.1-7.1-17.1-17.5
				c0-2.4,1.3-9.7,11.8-9.7c2.5,0,6,0.3,8.7,1.2l0.3,8.3H283c-0.5-4.8-3.6-7.7-8.6-7.7c-3.8,0-6,2.4-6,5c0,6.8,17.4,7.4,17.4,17.9
				c0,5.5-3.9,9.9-11.7,9.9c-3,0-6.9-0.6-10.2-1.5L263.5,295.6z"/>
		</g>
		<g>
			<path class="st0" d="M293.2,303.5c3.1,0,3.9-1.2,3.9-3.8v-23.1c0-2.6-0.8-3.8-3.9-3.8v-1.4c3.8,0.1,5.4,0.1,6.9,0.1
				c1.5,0,3.1,0,6.9-0.1v1.4c-3.1,0-3.9,1.2-3.9,3.8v23.1c0,2.6,0.8,3.8,3.9,3.8v1.4c-3.8-0.1-5.4-0.1-6.9-0.1
				c-1.5,0-3.1,0.1-6.9,0.1V303.5z"/>
		</g>
		<g>
			<path class="st0" d="M322.3,303.5c3.1,0,3.9-1.2,3.9-3.8v-26h-4.2c-3.8,0-6.3,1-6.6,7h-1.8l0.3-9.4c5.1,0,10.1,0.1,15.2,0.1
				c5.1,0.1,10.1-0.1,15.2-0.1l0.3,9.4h-1.7c-0.3-6-2.8-7-6.6-7h-4.1v26c0,2.6,0.8,3.8,3.9,3.8v1.4c-3.8-0.1-5.4-0.1-6.9-0.1
				c-1.5,0-3.1,0.1-6.9,0.1V303.5z"/>
		</g>
		<g>
			<path class="st0" d="M348.9,271.3c3.9,0.1,6.1,0.1,8.2,0.1c2.2,0,4.3,0,7-0.1v1.4h-1.3c-1.7,0-2.5,0.7-2.5,1.8
				c0,0.5,0.1,0.9,1.8,4.5l5,11.2l6.2-12.6c0.7-1.5,1-2.3,1-2.9c0-1.7-1.4-2-3.3-2v-1.4c2.2,0.1,3.8,0.1,5.2,0.1c1.5,0,3,0,5.2-0.1
				v1.4c-2,0-3.2,0.8-4.1,2.4l-9.5,17.7v6.9c0,2.6,0.9,3.8,3.9,3.8v1.4c-3.8-0.1-5.4-0.1-6.9-0.1c-1.5,0-3.1,0-6.9,0.1v-1.4
				c3.1,0,3.9-1.2,3.9-3.8v-6.9l-7.7-16.7c-1.3-2.9-2.4-3.3-5.3-3.4V271.3z"/>
		</g>
	</g>
</g>
<g id="Layer_1">
</g>
</svg>
